<?xml version='1.0' encoding='UTF-8'?>
<mxfile version="1.0" encoding="UTF-8" host="app.diagrams.net"><diagram name="ArchiMate Model" id="archimate_diagram"><mxGraphModel dx="1683" dy="979" grid="0" gridSize="10"><root><mxCell id="0" /><mxCell id="1" parent="0" /><mxCell id="label_Motivation_Layer" value="Motivation Layer" style="text;html=1;fontStyle=bold;align=center;verticalAlign=middle;" vertex="1" parent="1"><mxGeometry x="-30" y="-50" width="200" height="30" as="geometry" /></mxCell><mxCell id="elem_1" value="GDPR Compliance" style="html=1;outlineConnect=0;whiteSpace=wrap;fillColor=#CCCCFF;shape=mxgraph.archimate3.application;appType=requirement;archiType=square;tooltip=Must comply with EU data protection;" vertex="1" parent="1"><mxGeometry x="0" y="0" width="150" height="75" as="geometry" /></mxCell><mxCell id="elem_2" value="Data Protection Officer" style="html=1;outlineConnect=0;whiteSpace=wrap;fillColor=#ffff99;shape=mxgraph.archimate3.application;appType=actor;archiType=square;" vertex="1" parent="1"><mxGeometry x="180" y="0" width="150" height="75" as="geometry" /></mxCell><mxCell id="conn_1_2" style="endArrow=classic;html=1;dashed=0;" edge="1" source="elem_1" target="elem_2" parent="1"><mxCell value="Assignment" style="text;html=1;align=center;verticalAlign=middle;resizable=0;points=[];" vertex="1" connectable="0" parent="conn_1_2" /><mxGeometry relative="1" as="geometry" /></mxCell></root></mxGraphModel></diagram></mxfile>